<svg height="218" preserveAspectRatio="xMidYMid" viewBox="0 0 128 218" width="128" xmlns="http://www.w3.org/2000/svg"><g fill-rule="evenodd"><path d="m127.04 63.145c0 34.867-63.131 88.36-63.131 88.36s-63.131-53.493-63.131-88.36 28.265-63.133 63.131-63.133c34.867 0 63.131 28.266 63.131 63.133z" fill="#fbb713"/><path d="m63.909 151.505s63.131-53.493 63.131-88.36-28.264-63.133-63.131-63.133c0 0-2.521 1.827-2.521 1.827 21.682 6.781 37.764 31.657 37.764 61.306 0 23.231-22.053 68.583-36.772 87.02 0 0 1.529 1.34 1.529 1.34z" fill="#ff3a2f"/><path d="m92.546 6.931c13.58 11.579 22.219 28.784 22.219 48.03 0 31.508-51.543 78.215-61.476 86.925 6.326 5.974 10.62 9.619 10.62 9.619s63.131-53.493 63.131-88.36c0-24.546-14.037-45.77-34.494-56.214z" fill="#020403" opacity=".35"/><path d="m63.14 151.505s-63.131-53.493-63.131-88.36 28.265-63.133 63.131-63.133c0 0 2.52 1.827 2.52 1.827-21.681 6.781-37.763 31.657-37.763 61.306 0 23.231 22.053 68.583 36.771 87.02 0 0-1.528 1.34-1.528 1.34z" fill="#0cb04a"/><path d="m16.414 71.203c-1.51 0-2.918-.953-3.427-2.465-1.341-4.001-2.023-7.776-2.023-11.226 0-15.965 7.013-31.023 19.237-41.313 1.522-1.284 3.806-1.09 5.093.439 1.284 1.527 1.089 3.806-.438 5.093-10.589 8.912-16.663 21.955-16.663 35.781 0 2.666.555 5.668 1.647 8.925.636 1.892-.383 3.941-2.274 4.577-.382.128-.77.189-1.152.189z" fill="#fff"/><path d="m63.141 162.625c-1.997 0-3.615-1.619-3.615-3.615v-7.505c0-1.996 1.618-3.615 3.615-3.615 1.996 0 3.615 1.619 3.615 3.615v7.505c0 1.996-1.619 3.615-3.615 3.615z" fill="#142a3b"/><path d="m92.849 216.892h-57.88v-57.882h57.88z" fill="#142a3b"/><path d="m76.481 159.01v57.882h16.368v-57.882z" fill="#020403" opacity=".35"/></g></svg>